<svg width="10" height="6" viewBox="0 0 10 6" fill="none" xmlns="http://www.w3.org/2000/svg">
<path d="M0.733621 1.17949C0.330849 1.8268 0 2.43096 0 2.50288C0 2.81935 2.67556 5.17844 3.02079 5.17844C3.07833 5.17844 3.49549 4.71813 3.94141 4.17151C4.38734 3.61051 4.84765 3.16458 4.96273 3.16458C5.06342 3.16458 5.63881 3.58174 6.24297 4.09959C7.78213 5.4086 7.79652 5.4086 8.37191 4.90513C8.63083 4.67498 9.06237 4.11397 9.33568 3.66805L9.83915 2.84812L8.38629 1.40964C7.42251 0.474638 6.83274 -0.0144424 6.67451 0.0287118C6.53066 0.0574813 6.08474 0.503407 5.68196 1.03564C5.29358 1.56788 4.87642 2.02819 4.79011 2.07134C4.68942 2.1145 4.25788 1.86996 3.84072 1.52472C2.66117 0.560946 1.84124 -5.76973e-05 1.63986 -5.76973e-05C1.53916 -5.76973e-05 1.12201 0.532177 0.733621 1.17949Z" fill="white" fill-opacity="0.9"/>
</svg>
