<svg width="24" height="24" viewBox="0 0 24 24" fill="none" xmlns="http://www.w3.org/2000/svg">
<path d="M8.48266 0.179164C6.69557 0.767675 5.11017 1.71871 3.76399 3.02285C2.67579 4.07275 1.94407 5.06616 1.29677 6.36559C-1.05318 11.1066 -0.157292 16.6904 3.5623 20.4334C5.91694 22.8062 9.18624 24.1104 12.4696 23.9927C15.04 23.8985 17.2305 23.1499 19.2943 21.6575C21.5083 20.0614 23.1171 17.7168 23.8676 14.9955C24.0318 14.3929 24.0365 14.3034 23.9192 14.0398C23.7972 13.7714 23.5252 13.6302 23.1875 13.6584C22.9811 13.6772 22.8873 13.7196 22.6293 13.9127C21.8882 14.4588 21.4145 14.7554 20.8422 15.0379C19.5148 15.6876 18.3703 15.956 16.9069 15.956C14.4912 15.956 12.2492 15.0285 10.5465 13.3241C8.82507 11.5963 7.89635 9.36464 7.90104 6.93998C7.90573 4.85429 8.5155 2.98989 9.68344 1.48801C9.97894 1.10666 10.0634 0.85713 9.98832 0.598185C9.88044 0.240371 9.5521 -0.00915846 9.20031 0.000257717C9.10181 0.000257717 8.77817 0.0850027 8.48266 0.179164ZM7.15055 2.8769C6.78469 3.75731 6.52671 4.74601 6.41883 5.69233C6.35316 6.27143 6.35316 7.62265 6.41883 8.16408C6.85974 11.7752 9.06429 14.9061 12.2585 16.4691C13.7314 17.1942 15.0025 17.5002 16.6676 17.5426C18.3375 17.585 19.6039 17.3448 21.1893 16.6763C21.4567 16.5633 21.6865 16.4833 21.7006 16.4927C21.7381 16.5303 21.1377 17.4955 20.7672 17.9946C18.7033 20.777 15.6123 22.359 12.2351 22.359C9.86637 22.359 7.78847 21.6669 5.88411 20.2497C4.59421 19.2846 3.49194 17.9428 2.74615 16.4362C2.00035 14.9249 1.67202 13.4983 1.67202 11.7893C1.67671 10.3063 1.88309 9.18103 2.39436 7.8816C3.15891 5.93716 4.56138 4.19045 6.30157 3.02285C6.6346 2.79686 7.29596 2.40138 7.34287 2.39667C7.34756 2.39667 7.25844 2.61325 7.15055 2.8769Z" fill="white" fill-opacity="0.5"/>
</svg>
