<svg width="21" height="24" viewBox="0 0 21 24" fill="none" xmlns="http://www.w3.org/2000/svg">
<path d="M20.8 12C20.8008 12.3134 20.7185 12.6217 20.5611 12.8948C20.4037 13.168 20.1766 13.3967 19.9018 13.5588L2.87418 23.7283C2.5871 23.8999 2.2583 23.9936 1.92173 23.9997C1.58516 24.0058 1.25303 23.924 0.959636 23.7629C0.669039 23.6043 0.426963 23.3729 0.258303 23.0927C0.0896426 22.8124 0.000485559 22.4934 0 22.1684V1.83164C0.000485559 1.5066 0.0896426 1.18755 0.258303 0.907307C0.426963 0.62706 0.669039 0.395729 0.959636 0.237103C1.25303 0.0759744 1.58516 -0.00576841 1.92173 0.000316538C2.2583 0.00640149 2.5871 0.100094 2.87418 0.271717L19.9018 10.4412C20.1766 10.6033 20.4037 10.832 20.5611 11.1052C20.7185 11.3783 20.8008 11.6866 20.8 12Z" fill="#1F956A"/>
</svg>
