<svg width="24" height="24" viewBox="0 0 24 24" fill="none" xmlns="http://www.w3.org/2000/svg">
<path fill-rule="evenodd" clip-rule="evenodd" d="M12 1.84615C9.30703 1.84615 6.72436 2.91593 4.82015 4.82015C2.91593 6.72436 1.84615 9.30703 1.84615 12V13.5385H4.61538C5.51304 13.5385 6.37393 13.8951 7.00867 14.5298C7.64341 15.1645 8 16.0254 8 16.9231V20.6154C8 21.513 7.64341 22.3739 7.00867 23.0087C6.37393 23.6434 5.51304 24 4.61538 24H3.38462C2.48696 24 1.62607 23.6434 0.991331 23.0087C0.356592 22.3739 0 21.513 0 20.6154V12C5.50197e-08 8.8174 1.26428 5.76516 3.51472 3.51472C5.76515 1.26428 8.8174 0 12 0C15.1826 0 18.2348 1.26428 20.4853 3.51472C22.7357 5.76516 24 8.8174 24 12V20.6154C24 21.513 23.6434 22.3739 23.0087 23.0087C22.3739 23.6434 21.513 24 20.6154 24H19.3846C18.487 24 17.6261 23.6434 16.9913 23.0087C16.3566 22.3739 16 21.513 16 20.6154V16.9231C16 16.0254 16.3566 15.1645 16.9913 14.5298C17.6261 13.8951 18.487 13.5385 19.3846 13.5385H22.1538V12C22.1538 9.30703 21.0841 6.72436 19.1799 4.82015C17.2756 2.91593 14.693 1.84615 12 1.84615ZM22.1538 15.3846H19.3846C18.9766 15.3846 18.5853 15.5467 18.2968 15.8352C18.0082 16.1237 17.8462 16.5151 17.8462 16.9231V20.6154C17.8462 21.0234 18.0082 21.4147 18.2968 21.7032C18.5853 21.9918 18.9766 22.1538 19.3846 22.1538H20.6154C21.0234 22.1538 21.4147 21.9918 21.7032 21.7032C21.9918 21.4147 22.1538 21.0234 22.1538 20.6154V15.3846ZM1.84615 20.6154C1.84615 21.0234 2.00824 21.4147 2.29676 21.7032C2.58528 21.9918 2.97659 22.1538 3.38462 22.1538H4.61538C5.02341 22.1538 5.41472 21.9918 5.70324 21.7032C5.99176 21.4147 6.15385 21.0234 6.15385 20.6154V16.9231C6.15385 16.5151 5.99176 16.1237 5.70324 15.8352C5.41472 15.5467 5.02341 15.3846 4.61538 15.3846H1.84615V20.6154Z" fill="#999999"/>
</svg>
