<svg width="22" height="22" viewBox="0 0 22 22" fill="none" xmlns="http://www.w3.org/2000/svg">
<path fill-rule="evenodd" clip-rule="evenodd" d="M5.23177 6.50407C4.14696 6.50407 3.25602 7.395 3.25602 8.47981V17.9903C3.25602 18.4582 3.4184 18.6367 3.51465 18.6933C3.61152 18.7502 3.84771 18.8052 4.25775 18.5796C4.25815 18.5794 4.25854 18.5791 4.25894 18.5789L7.55057 16.7446C7.84147 16.5853 8.18202 16.5231 8.48844 16.5231C8.79486 16.5231 9.1354 16.5854 9.42629 16.7447L9.43036 16.7469L12.7179 18.5789C12.7183 18.5791 12.7187 18.5794 12.7191 18.5796C13.1291 18.8052 13.3653 18.7502 13.4622 18.6933C13.5585 18.6367 13.7208 18.4582 13.7208 17.9903V8.47981C13.7208 7.395 12.8299 6.50407 11.7451 6.50407H5.23177ZM2.00024 8.47981C2.00024 6.70145 3.45341 5.24829 5.23177 5.24829H11.7451C13.5235 5.24829 14.9766 6.70145 14.9766 8.47981V17.9903C14.9766 18.7362 14.7037 19.4201 14.0988 19.7758C13.4946 20.1311 12.7642 20.0383 12.1117 19.6787L12.1092 19.6773L8.82312 17.8461C8.82266 17.8458 8.8222 17.8456 8.82174 17.8453C8.76059 17.8123 8.64132 17.7789 8.48844 17.7789C8.33555 17.7789 8.21628 17.8123 8.15513 17.8453C8.15467 17.8456 8.15421 17.8458 8.15375 17.8461L4.86767 19.6773L4.86512 19.6787C4.21267 20.0383 3.48227 20.1311 2.87809 19.7758C2.2732 19.4201 2.00024 18.7362 2.00024 17.9903V8.47981Z" fill="white"/>
<path fill-rule="evenodd" clip-rule="evenodd" d="M10.2549 3.25578C9.17007 3.25578 8.27914 4.14671 8.27914 5.23153V5.24829H11.7451C13.5235 5.24829 14.9766 6.70145 14.9766 8.47981V13.7874L17.741 15.3306C17.7415 15.3309 17.742 15.3312 17.7425 15.3314C18.1524 15.5569 18.3885 15.5019 18.4853 15.445C18.5816 15.3884 18.744 15.21 18.744 14.742V5.23153C18.744 4.14671 17.853 3.25578 16.7682 3.25578H10.2549ZM7.02336 5.23153C7.02336 3.45316 8.47652 2 10.2549 2H16.7682C18.5466 2 19.9997 3.45316 19.9997 5.23153V14.742C19.9997 15.4879 19.7268 16.1718 19.1219 16.5275C18.5177 16.8828 17.7873 16.79 17.1349 16.4304L17.1319 16.4288L14.0427 14.7042C13.844 14.5932 13.7208 14.3835 13.7208 14.1559V8.47981C13.7208 7.395 12.8299 6.50407 11.7451 6.50407H7.65125C7.30448 6.50407 7.02336 6.22295 7.02336 5.87618V5.23153Z" fill="white"/>
</svg>
