<svg width="16" height="14" viewBox="0 0 16 14" fill="none" xmlns="http://www.w3.org/2000/svg">
<path d="M13.8008 0.185264C13.8777 0.250398 13.9487 0.320291 14.0195 0.391869L14.0809 0.452803C14.1472 0.518682 14.2132 0.584891 14.2791 0.651132C14.3254 0.697336 14.3717 0.743525 14.4179 0.789702C14.5146 0.886233 14.6111 0.98293 14.7075 1.07975C14.8309 1.20367 14.9547 1.32717 15.0786 1.45055C15.1741 1.54573 15.2694 1.64114 15.3647 1.73662L15.4033 1.77523C15.436 1.80795 15.4688 1.84064 15.5016 1.87329C15.5654 1.93689 15.629 2.00078 15.6924 2.06475L15.7494 2.1212C15.9092 2.28342 15.9979 2.42734 15.9982 2.66144L16 2.76161C15.9645 3.00577 15.8249 3.17085 15.6538 3.33926L15.592 3.40162C15.525 3.46899 15.4576 3.53591 15.3901 3.60281C15.3431 3.64977 15.2962 3.69675 15.2493 3.74375C15.1511 3.84193 15.0528 3.93989 14.9543 4.0377C14.8282 4.16292 14.7025 4.28863 14.5771 4.4145C14.4803 4.51147 14.3833 4.60822 14.2863 4.70489C14.2399 4.75116 14.1935 4.79749 14.1473 4.84388C14.0825 4.9087 14.0175 4.97319 13.9524 5.03762L13.8949 5.09552C13.7233 5.26417 13.5616 5.34831 13.3201 5.36575C13.0994 5.36042 12.9233 5.27326 12.7713 5.11423C12.6481 4.94913 12.6322 4.78993 12.63 4.5878C12.6696 4.35457 12.8016 4.19232 12.9678 4.03212L13.0239 3.97653C13.0824 3.91872 13.1413 3.86136 13.2003 3.804L13.3203 3.68567C13.4178 3.58959 13.5156 3.49392 13.6136 3.39845C13.2765 3.39627 12.9394 3.39461 12.6023 3.3936C12.4457 3.39311 12.2891 3.39246 12.1325 3.39139C11.981 3.39036 11.8295 3.38981 11.678 3.38957C11.6206 3.3894 11.5632 3.38906 11.5058 3.38855C10.6466 3.38123 9.84052 3.6023 9.1838 4.17835L9.11337 4.23526C8.52584 4.72349 8.16012 5.48938 8.06075 6.23728C8.04713 6.39568 8.03806 6.55428 8.02955 6.71302C7.96356 7.93009 7.57575 8.98163 6.75051 9.88721L6.67009 9.97556C5.84148 10.8426 4.65816 11.3241 3.46656 11.3597C3.28219 11.3634 3.09781 11.3638 2.91341 11.3639L2.70997 11.3645C2.65015 11.3647 2.59033 11.3648 2.53051 11.3649C2.44928 11.365 2.36806 11.365 2.28683 11.365C2.10658 11.365 1.92637 11.3658 1.74614 11.3669C1.68917 11.3672 1.63221 11.3674 1.57524 11.3675C1.49261 11.3677 1.40997 11.3677 1.32734 11.3677C1.26088 11.3678 1.19442 11.368 1.12794 11.3685C1.03512 11.3691 0.942306 11.369 0.84948 11.3686L0.767545 11.3696C0.55653 11.3675 0.360291 11.3214 0.202819 11.1731C0.0251631 10.9757 -0.00377848 10.8231 0.000364736 10.5576C0.0218881 10.3594 0.11636 10.2408 0.259803 10.1095C0.449233 9.97804 0.622319 9.9717 0.845078 9.97234L0.935848 9.97184C1.00075 9.97153 1.06566 9.97134 1.13056 9.97129C1.23372 9.97117 1.33686 9.97065 1.44001 9.97002C1.73326 9.96829 2.02652 9.96733 2.31977 9.96657C2.49941 9.96607 2.67903 9.96512 2.85866 9.96392C2.92669 9.96356 2.99472 9.96337 3.06273 9.96337C3.55689 9.96334 4.02391 9.93787 4.49076 9.75853L4.5654 9.7303C4.953 9.57765 5.28607 9.35322 5.59626 9.07612L5.65378 9.0264C6.27216 8.45469 6.59952 7.59169 6.63304 6.76432C6.63519 6.70628 6.63729 6.64823 6.63938 6.59019C6.68908 5.2665 7.22554 4.0794 8.19528 3.17593C9.15858 2.30637 10.3515 1.99672 11.6212 1.98476L11.794 1.9828C11.9447 1.98109 12.0954 1.97954 12.2461 1.97803C12.3881 1.97658 12.5301 1.97499 12.6721 1.97341L12.7085 1.973C13.0102 1.96966 13.3119 1.96649 13.6136 1.96343L13.5383 1.89057C13.4453 1.80045 13.3529 1.7098 13.2606 1.61899C13.2208 1.57991 13.1808 1.54098 13.1406 1.50219C12.8236 1.19564 12.7131 1.0888 12.6688 0.95932C12.6451 0.890056 12.6403 0.814311 12.6329 0.698048C12.6457 0.467188 12.7226 0.295175 12.8936 0.137861C13.2001 -0.0801453 13.5148 -0.0209502 13.8008 0.185264Z" fill="#1F956A" fill-opacity="0.6"/>
<path d="M13.8008 8.17143C13.8777 8.23657 13.9487 8.30646 14.0195 8.37804L14.081 8.43897C14.1472 8.50485 14.2132 8.57106 14.2791 8.6373L14.4179 8.77587C14.5146 8.8724 14.6111 8.9691 14.7075 9.06592C14.8309 9.18984 14.9547 9.31334 15.0786 9.43672C15.1741 9.5319 15.2695 9.62731 15.3647 9.72279C15.4102 9.76841 15.4559 9.81397 15.5016 9.85946L15.5343 9.89207L15.5634 9.92118C15.6065 9.96435 15.6495 10.0076 15.6924 10.0509L15.7494 10.1074C15.9092 10.2696 15.9979 10.4135 15.9982 10.6476L16 10.7478C15.9643 10.9933 15.8232 11.1588 15.6515 11.3283L15.5888 11.3916C15.521 11.46 15.4527 11.5279 15.3844 11.5958C15.3368 11.6435 15.2892 11.6911 15.2417 11.7388C15.1823 11.7983 15.1228 11.8578 15.0633 11.9171C15.0231 11.9572 14.9829 11.9972 14.9427 12.0372C14.8149 12.1643 14.6877 12.2919 14.5607 12.4197C14.4626 12.5181 14.3643 12.6163 14.2659 12.7144C14.2189 12.7613 14.172 12.8084 14.1251 12.8555C14.0932 12.8875 14.0612 12.9195 14.0292 12.9514C13.9954 12.985 13.9615 13.0186 13.9276 13.0521L13.8696 13.1109C13.7093 13.2681 13.5514 13.3633 13.3192 13.3636C13.1241 13.3572 12.9831 13.3087 12.8414 13.1727C12.7019 13.0164 12.6374 12.9007 12.6349 12.6871L12.6322 12.5852C12.6639 12.3453 12.7981 12.1818 12.9678 12.0183L13.0239 11.9627C13.0824 11.9049 13.1413 11.8475 13.2003 11.7902L13.3203 11.6718C13.4178 11.5758 13.5156 11.4801 13.6136 11.3846L13.5199 11.3841C13.2254 11.3823 12.9309 11.38 12.6364 11.3773C12.4851 11.3759 12.3337 11.3747 12.1824 11.3738C11.0756 11.3674 10.7496 11.3656 10.4377 11.298C10.3075 11.2699 10.1798 11.2302 9.9988 11.174L9.91774 11.1497C9.42545 10.9971 8.74808 10.7543 8.46629 10.2928C8.3738 10.0847 8.39764 9.87482 8.46824 9.66299C8.57874 9.5026 8.70811 9.38518 8.88939 9.31204C9.20427 9.26051 9.40392 9.35047 9.66929 9.50701C10.1479 9.7882 10.6721 9.95575 11.2302 9.95315L11.3086 9.95316C11.3936 9.95314 11.4784 9.9529 11.5633 9.95265L11.7408 9.95252C11.8959 9.9524 12.051 9.95209 12.2062 9.95175C12.2694 9.95162 12.3327 9.95152 12.3959 9.95144L12.6817 9.95113C12.9923 9.95079 13.303 9.95026 13.6136 9.9496L13.5383 9.87674C13.4453 9.78662 13.3529 9.69597 13.2606 9.60516C13.2393 9.58422 13.2179 9.56332 13.1964 9.54246C13.1778 9.52439 13.1592 9.50636 13.1406 9.48836C12.8236 9.18181 12.7132 9.07497 12.6688 8.94549C12.6451 8.87623 12.6403 8.80048 12.6329 8.68422C12.6458 8.45336 12.7226 8.28134 12.8936 8.12403C13.2002 7.90602 13.5148 7.96522 13.8008 8.17143Z" fill="#1F956A" fill-opacity="0.6"/>
<path d="M0.928841 1.98558L0.839731 1.98606C0.618907 1.98544 0.447573 1.99302 0.259803 2.12331C0.11636 2.25464 0.0218881 2.37319 0.000364736 2.57139C-0.00377848 2.83692 0.0251479 2.98956 0.202834 3.18696C0.361342 3.3363 0.558176 3.3813 0.77047 3.38337L0.853715 3.3823C0.915376 3.38256 0.977052 3.38277 1.03871 3.38295C1.13896 3.3824 1.23919 3.38188 1.33943 3.3821C1.59179 3.38317 1.84411 3.38321 2.09647 3.38285C2.3129 3.38254 2.52934 3.38238 2.74578 3.38316C2.848 3.38359 2.9502 3.38384 3.05241 3.38329C3.74865 3.37944 4.39958 3.46297 4.99964 3.84104C5.19419 3.96573 5.35876 4.04617 5.59041 4.06136C5.79584 4.04525 5.94024 3.9713 6.0954 3.83519C6.20186 3.69267 6.25997 3.54509 6.27088 3.36725C6.25834 3.16248 6.18082 2.99108 6.04117 2.84107C5.22741 2.1553 4.04446 1.97856 3.02083 1.98283C2.95407 1.98315 2.8873 1.98331 2.82054 1.98332C2.67961 1.98323 2.53869 1.98325 2.39776 1.98371C2.21634 1.98444 2.03491 1.98496 1.85348 1.98478C1.71049 1.98462 1.56749 1.98461 1.42449 1.98484L1.22018 1.98525C1.12305 1.98518 1.02595 1.98515 0.928841 1.98558Z" fill="#1F956A" fill-opacity="0.6"/>
</svg>
