<svg width="12" height="12" viewBox="0 0 12 12" fill="none" xmlns="http://www.w3.org/2000/svg">
<path fill-rule="evenodd" clip-rule="evenodd" d="M4.38671 3.43843L4.32942 3.79039C4.02332 3.8089 3.71796 3.83369 3.41374 3.86434L2.66661 3.93683C2.4365 3.95915 2.26806 4.16379 2.29038 4.3939C2.31271 4.624 2.51735 4.79245 2.74745 4.77012L3.09095 4.7368L3.31065 8.109L3.31073 8.11017L3.31132 8.11896C3.32055 8.25481 3.33143 8.41512 3.36171 8.56618C3.3935 8.72478 3.45166 8.90247 3.57499 9.06306C3.83661 9.40368 4.26955 9.52179 4.82233 9.52179H7.1721C7.72487 9.52179 8.15781 9.40368 8.41943 9.06305C8.54276 8.90247 8.60092 8.72478 8.63271 8.56617C8.66298 8.41513 8.67387 8.25482 8.68309 8.11897L8.68369 8.11017L8.68376 8.10901L8.90349 4.7366C9.01943 4.74716 9.13529 4.75828 9.25104 4.76996C9.48106 4.79318 9.68635 4.62552 9.70956 4.3955C9.73277 4.16548 9.56512 3.9602 9.3351 3.93698C8.78314 3.88128 8.22893 3.83807 7.674 3.80735L7.61301 3.43705L7.61288 3.43626L7.60826 3.40792C7.58507 3.26405 7.54306 3.0034 7.36764 2.80108C7.15525 2.55614 6.83935 2.47811 6.47998 2.47811H5.51997C5.16553 2.47811 4.84822 2.55103 4.63405 2.79491C4.45563 2.99807 4.41432 3.26221 4.39113 3.41049L4.38671 3.43843ZM5.6261 3.75068C5.47846 3.75068 5.33086 3.75227 5.18335 3.75539L5.21324 3.57174C5.2281 3.4796 5.23755 3.42583 5.25025 3.383C5.25549 3.36531 5.2598 3.35504 5.26238 3.34973C5.28209 3.33957 5.34892 3.31532 5.51997 3.31532H6.47998C6.65255 3.31532 6.71778 3.34115 6.73593 3.3514C6.73854 3.35629 6.74363 3.36736 6.74994 3.3885C6.76272 3.43132 6.77205 3.48383 6.787 3.57353L6.81935 3.76993C6.42139 3.7571 6.02345 3.75068 5.6261 3.75068ZM8.06882 4.6704C7.25548 4.6154 6.43954 4.58789 5.6261 4.58789C5.05869 4.58789 4.49067 4.61229 3.92482 4.6584L4.14601 8.05341L4.14605 8.05398C4.15621 8.20343 4.16436 8.31068 4.18259 8.40165C4.19999 8.48845 4.22136 8.53018 4.23896 8.55309C4.2592 8.57944 4.3537 8.68458 4.82233 8.68458H7.1721C7.64072 8.68458 7.73522 8.57944 7.75546 8.55309C7.77305 8.53018 7.79443 8.48845 7.81182 8.40165C7.83006 8.31068 7.83821 8.20344 7.84836 8.05398L7.8484 8.05341L8.06882 4.6704ZM5.25555 3.35412C5.25542 3.35404 5.25644 3.35312 5.25897 3.35161C5.25694 3.35345 5.25567 3.35421 5.25555 3.35412ZM6.74172 3.35551C6.74157 3.35561 6.74016 3.35474 6.73795 3.35259C6.74076 3.35433 6.74187 3.35541 6.74172 3.35551Z" fill="#999999"/>
<path fill-rule="evenodd" clip-rule="evenodd" d="M4.32558 0C2.88895 0 1.7744 0.284763 1.02958 1.02958C0.284763 1.7744 0 2.88895 0 4.32558V7.67442C0 9.11105 0.284763 10.2256 1.02958 10.9704C1.7744 11.7152 2.88895 12 4.32558 12H7.67442C9.11105 12 10.2256 11.7152 10.9704 10.9704C11.7152 10.2256 12 9.11105 12 7.67442V4.32558C12 2.88895 11.7152 1.7744 10.9704 1.02958C10.2256 0.284763 9.11105 0 7.67442 0H4.32558ZM0.837209 4.32558C0.837209 2.97152 1.11059 2.13257 1.62158 1.62158C2.13257 1.11059 2.97152 0.837209 4.32558 0.837209H7.67442C9.02848 0.837209 9.86743 1.11059 10.3784 1.62158C10.8894 2.13257 11.1628 2.97152 11.1628 4.32558V7.67442C11.1628 9.02848 10.8894 9.86743 10.3784 10.3784C9.86743 10.8894 9.02848 11.1628 7.67442 11.1628H4.32558C2.97152 11.1628 2.13257 10.8894 1.62158 10.3784C1.11059 9.86743 0.837209 9.02848 0.837209 7.67442V4.32558Z" fill="#999999"/>
</svg>
