<svg width="11" height="12" viewBox="0 0 11 12" fill="none" xmlns="http://www.w3.org/2000/svg">
<path fill-rule="evenodd" clip-rule="evenodd" d="M3.19837 1.27579L3.0783 1.99074C2.55744 2.01886 2.0366 2.05921 1.51579 2.11181L0.377791 2.22338C0.147705 2.24594 -0.0205297 2.45075 0.00202768 2.68083C0.024585 2.91092 0.229393 3.07915 0.459478 3.05659L1.59808 2.94497L1.59931 2.94484C2.69052 2.83462 3.78159 2.77952 4.87258 2.77952C6.72261 2.77952 8.57859 2.87369 10.4239 3.05655C10.6539 3.07935 10.8589 2.91133 10.8817 2.68127C10.9045 2.45121 10.7365 2.24622 10.5064 2.22342C9.60969 2.13456 8.7103 2.06632 7.81009 2.01935C7.8095 2.01505 7.80884 2.01074 7.80811 2.00643L7.68553 1.28211L7.68029 1.24962C7.64358 1.02143 7.58861 0.679677 7.3613 0.417737C7.09829 0.114642 6.69499 0 6.17305 0H4.71072C4.19506 0 3.79136 0.106112 3.52676 0.406153C3.29977 0.663556 3.24339 1.00409 3.20496 1.23621L3.19837 1.27579ZM4.02398 1.41464L3.93313 1.95559C4.24628 1.94674 4.55943 1.94231 4.87258 1.94231C5.5662 1.94231 6.26053 1.95535 6.95472 1.98114L6.85943 1.41806C6.81274 1.13172 6.78321 1.02894 6.72898 0.966448C6.69897 0.931869 6.59436 0.837209 6.17305 0.837209H4.71072C4.28314 0.837209 4.18172 0.929236 4.15469 0.959893C4.10327 1.0182 4.07426 1.11615 4.02398 1.41464Z" fill="#999999"/>
<path d="M9.68282 4.43069C9.69771 4.19998 9.52276 4.00088 9.29205 3.98599C9.06134 3.9711 8.86224 4.14605 8.84735 4.37676L8.48472 9.99493L8.48463 9.99607C8.46888 10.2209 8.45555 10.3991 8.42426 10.5545C8.39378 10.7059 8.35147 10.8053 8.29683 10.8764C8.2026 10.9991 7.96989 11.1628 7.23346 11.1628H3.65021C2.91378 11.1628 2.68107 10.9991 2.58684 10.8764C2.5322 10.8053 2.48989 10.7059 2.45941 10.5545C2.42811 10.3991 2.41478 10.2209 2.39903 9.99607L2.39895 9.99493L2.03631 4.37676C2.02142 4.14605 1.82232 3.9711 1.59162 3.98599C1.36091 4.00088 1.18595 4.19998 1.20084 4.43069L1.56363 10.0512L1.56379 10.0534L1.56453 10.064C1.57924 10.274 1.59541 10.505 1.63868 10.7198C1.68355 10.9426 1.76263 11.1778 1.92288 11.3864C2.25842 11.8232 2.82943 12 3.65021 12H7.23346C8.05424 12 8.62525 11.8232 8.96079 11.3864C9.12103 11.1778 9.20012 10.9426 9.24499 10.7198C9.28826 10.505 9.30443 10.274 9.31913 10.064L9.31988 10.0534L9.32003 10.0512L9.68282 4.43069Z" fill="#999999"/>
<path d="M4.09123 8.51162C4.09123 8.28043 4.27865 8.09302 4.50984 8.09302H6.36844C6.59963 8.09302 6.78705 8.28043 6.78705 8.51162C6.78705 8.74281 6.59963 8.93023 6.36844 8.93023H4.50984C4.27865 8.93023 4.09123 8.74281 4.09123 8.51162Z" fill="#999999"/>
<path d="M4.04654 5.86046C3.81535 5.86046 3.62793 6.04788 3.62793 6.27907C3.62793 6.51025 3.81535 6.69767 4.04654 6.69767H6.83723C7.06842 6.69767 7.25584 6.51025 7.25584 6.27907C7.25584 6.04788 7.06842 5.86046 6.83723 5.86046H4.04654Z" fill="#999999"/>
</svg>
