<svg width="14" height="13" viewBox="0 0 14 13" fill="none" xmlns="http://www.w3.org/2000/svg">
<path d="M6.25 0.75V6.439L4.27979 4.47C4.24512 4.4353 4.20752 4.40417 4.16699 4.37701C4.12598 4.3497 4.08252 4.3264 4.03662 4.30753C3.99072 4.28845 3.94287 4.27406 3.89453 4.26451C3.84717 4.2552 3.79883 4.25047 3.75 4.25047C3.65137 4.25047 3.5542 4.26985 3.46338 4.30753C3.37207 4.34518 3.28955 4.40041 3.22021 4.47C3.15039 4.5396 3.09521 4.62222 3.05762 4.71317C3.02002 4.80411 3.00049 4.90157 3.00049 5C3.00049 5.09843 3.02002 5.19589 3.05762 5.28683C3.09521 5.37778 3.15039 5.4604 3.22021 5.53L6.47021 8.78C6.61084 8.92046 6.80127 8.99934 7 8.99934C7.19873 8.99934 7.38916 8.92046 7.52979 8.78L10.7798 5.53C10.8496 5.4604 10.9048 5.37778 10.9424 5.28683C10.98 5.19589 10.9995 5.09843 10.9995 5C10.9995 4.90157 10.98 4.80411 10.9424 4.71317C10.9048 4.62222 10.8496 4.5396 10.7798 4.47C10.7427 4.43257 10.7017 4.39931 10.6572 4.3707C10.6191 4.3461 10.5786 4.32494 10.5366 4.30753C10.4458 4.26985 10.3486 4.25047 10.25 4.25047C10.1514 4.25047 10.0542 4.26985 9.96338 4.30753C9.87207 4.34518 9.78955 4.40041 9.72021 4.47L7.75 6.439V0.75C7.75 0.551086 7.6709 0.360321 7.53027 0.219666C7.38965 0.0790253 7.19873 0 7 0C6.80127 0 6.61035 0.0790253 6.46973 0.219666C6.3291 0.360321 6.25 0.551086 6.25 0.75Z" fill="#999999"/>
<path d="M0.512695 12.2374C0.84082 12.5656 1.28564 12.75 1.75 12.75H12.25C12.7144 12.75 13.1592 12.5656 13.4873 12.2374C13.8154 11.9093 14 11.4641 14 11V8.5C14 8.38602 13.9741 8.2747 13.9253 8.17395C13.8892 8.09889 13.8403 8.02971 13.7803 7.96967C13.6396 7.82903 13.4487 7.75 13.25 7.75C13.0513 7.75 12.8604 7.82903 12.7197 7.96967C12.5791 8.11032 12.5 8.30109 12.5 8.5V11C12.5 11.0663 12.4736 11.1299 12.4268 11.1768C12.3799 11.2237 12.3164 11.25 12.25 11.25H1.75C1.61182 11.25 1.5 11.138 1.5 11V8.5C1.5 8.30109 1.4209 8.11032 1.28027 7.96967C1.13965 7.82903 0.94873 7.75 0.75 7.75C0.55127 7.75 0.360352 7.82903 0.219727 7.96967C0.0791016 8.11032 0 8.30109 0 8.5V11C0 11.4641 0.18457 11.9093 0.512695 12.2374Z" fill="#999999"/>
</svg>
