<svg width="12" height="12" viewBox="0 0 12 12" fill="none" xmlns="http://www.w3.org/2000/svg">
<path d="M11.8774 4.58772C11.8849 4.5952 11.892 4.60292 11.8988 4.61085C11.9609 4.68307 11.9956 4.77311 11.9996 4.86553C11.9999 4.87265 12 4.8798 12 4.88694" fill="#999999"/>
<path d="M4.74418 5.44186C4.74418 5.21067 4.55677 5.02325 4.32558 5.02325C4.09439 5.02325 3.90697 5.21067 3.90697 5.44186V7.78009L3.5053 7.37841C3.34182 7.21494 3.07678 7.21494 2.9133 7.37841C2.74983 7.54189 2.74983 7.80693 2.9133 7.97041L4.02741 9.08451C4.03533 9.09256 4.04359 9.10029 4.05217 9.1077C4.11609 9.16294 4.19275 9.19565 4.27175 9.20584C4.29911 9.20938 4.3266 9.21019 4.35384 9.20834C4.45136 9.20178 4.54703 9.16123 4.62157 9.08669L5.73785 7.97041C5.90133 7.80693 5.90133 7.54189 5.73785 7.37841C5.57438 7.21494 5.30933 7.21494 5.14586 7.37841L4.74418 7.78009V5.44186Z" fill="#999999"/>
<path fill-rule="evenodd" clip-rule="evenodd" d="M12 4.88694V7.67441C12 9.11104 11.7152 10.2256 10.9704 10.9704C10.2256 11.7152 9.11104 12 7.67441 12H4.32558C2.88894 12 1.7744 11.7152 1.02958 10.9704C0.284763 10.2256 0 9.11104 0 7.67441V4.32558C0 2.88894 0.284763 1.7744 1.02958 1.02958C1.7744 0.284763 2.88894 0 4.32558 0H7.11627C7.1227 0 7.12909 0.0001448 7.13544 0.000431235M6.69767 0.837209H4.32558C2.97152 0.837209 2.13257 1.11058 1.62158 1.62158C1.11058 2.13257 0.837208 2.97152 0.837208 4.32558V7.67441C0.837208 9.02847 1.11058 9.86742 1.62158 10.3784C2.13257 10.8894 2.97152 11.1628 4.32558 11.1628H7.67441C9.02847 11.1628 9.86742 10.8894 10.3784 10.3784C10.8894 9.86742 11.1628 9.02847 11.1628 7.67441V5.30232H9.34883C8.48843 5.30232 7.78162 5.16432 7.30865 4.69134C6.83567 4.21836 6.69767 3.51156 6.69767 2.65116V0.837209ZM7.53488 2.65116V1.4292L10.5708 4.46511H9.34883C8.53481 4.46511 8.12534 4.32404 7.90064 4.09935C7.67595 3.87465 7.53488 3.46518 7.53488 2.65116Z" fill="#999999"/>
<path d="M7.41248 0.122815L11.8774 4.58772L7.41248 0.122815Z" fill="#999999"/>
</svg>
