<svg width="24" height="15" viewBox="0 0 24 15" fill="none" xmlns="http://www.w3.org/2000/svg">
<path d="M8.55092 0.0156109C7.16013 0.227049 6.13113 0.7345 5.2102 1.65073C4.21879 2.64214 3.67844 3.8262 3.55628 5.26867L3.52339 5.68215L3.18509 5.76673C1.70972 6.14262 0.51157 7.32197 0.107488 8.80204C-0.0334705 9.32829 -0.0381691 10.3761 0.107488 10.8929C0.520967 12.4012 1.68153 13.543 3.22738 13.9564L3.61736 14.0598H12.0044C19.8558 14.0598 20.4102 14.0551 20.7157 13.9752C22.2897 13.5711 23.4879 12.42 23.9013 10.907C23.9812 10.6063 24 10.409 24 9.85453C24 9.30009 23.9812 9.10275 23.9013 8.80204C23.4879 7.30318 22.2474 6.09563 20.7439 5.74793C20.5841 5.71034 20.4431 5.67276 20.4337 5.65866C20.4243 5.64926 20.3727 5.47541 20.321 5.26867C19.9498 3.8074 18.7845 2.64214 17.2904 2.23806C16.985 2.15349 16.7876 2.13469 16.2332 2.13469C15.4438 2.13469 15.082 2.20987 14.4148 2.52468C14.0624 2.68913 14.0013 2.70322 13.9637 2.64214C13.9449 2.60455 13.7993 2.40251 13.6442 2.20047C12.869 1.17147 11.6943 0.414993 10.4069 0.123679C10.0169 0.0344048 8.87043 -0.0313754 8.55092 0.0156109ZM10.2424 1.53796C11.107 1.7588 11.8775 2.25216 12.4273 2.93346C12.7797 3.37043 12.9723 3.72283 13.2542 4.43702C13.3764 4.75652 13.4939 5.01495 13.5174 5.01495C13.5362 5.01495 13.7946 4.78472 14.0906 4.5028C14.4994 4.11281 14.7061 3.95306 14.9692 3.8215C15.5989 3.51139 16.2614 3.43621 16.9098 3.60536C17.4407 3.74162 17.8025 3.94836 18.2066 4.35714C18.808 4.95856 19.0523 5.58348 19.0523 6.5279V7.03536H19.5598C20.4995 7.03536 21.209 7.31258 21.801 7.9046C23.3469 9.45045 22.5904 12.03 20.4337 12.5797C20.0813 12.6737 19.8793 12.6737 12.0044 12.6737C4.12951 12.6737 3.92747 12.6737 3.57507 12.5797C2.01983 12.1851 1.0942 10.6815 1.47949 9.17323C1.73791 8.17242 2.53198 7.39715 3.57507 7.12933C3.8429 7.05885 4.09662 7.03536 4.54299 7.03536C5.14441 7.03536 5.14442 7.03536 5.12092 6.92729C5.02225 6.47152 4.94707 5.69155 4.97527 5.34385C5.10683 3.40332 6.51172 1.83398 8.44755 1.46279C8.90802 1.37351 9.75847 1.4111 10.2424 1.53796Z" fill="white"/>
</svg>
