<svg width="26" height="24" viewBox="0 0 26 24" fill="none" xmlns="http://www.w3.org/2000/svg">
<path d="M0.75 15.15H16.35C17.4684 15.15 18.0276 15.15 18.468 15.3324C18.7594 15.453 19.0241 15.6299 19.2471 15.8529C19.4701 16.0759 19.647 16.3406 19.7676 16.632C19.95 17.0724 19.95 17.6316 19.95 18.75C19.95 19.8684 19.95 20.4276 19.7676 20.868C19.647 21.1594 19.4701 21.4241 19.2471 21.6471C19.0241 21.8701 18.7594 22.047 18.468 22.1676C18.0276 22.35 17.4684 22.35 16.35 22.35H0.75M0.75 0.75H16.35C17.4684 0.75 18.0276 0.75 18.468 0.9324C18.7594 1.05302 19.0241 1.22987 19.2471 1.45287C19.4701 1.67586 19.647 1.94062 19.7676 2.232C19.95 2.6724 19.95 3.2316 19.95 4.35C19.95 5.4684 19.95 6.0276 19.7676 6.468C19.647 6.75938 19.4701 7.02414 19.2471 7.24713C19.0241 7.47013 18.7594 7.64698 18.468 7.7676C18.0276 7.95 17.4684 7.95 16.35 7.95H0.75M24.75 7.95H9.15C8.0316 7.95 7.4724 7.95 7.032 8.1324C6.74062 8.25302 6.47586 8.42988 6.25287 8.65287C6.02987 8.87586 5.85302 9.14062 5.7324 9.432C5.55 9.8724 5.55 10.4316 5.55 11.55C5.55 12.6684 5.55 13.2276 5.7324 13.668C5.85302 13.9594 6.02987 14.2241 6.25287 14.4471C6.47586 14.6701 6.74062 14.847 7.032 14.9676C7.4724 15.15 8.0316 15.15 9.15 15.15H24.75M23.55 15.15C22.224 15.15 21.15 13.5384 21.15 11.55C21.15 9.5616 22.224 7.95 23.55 7.95M1.95 0.75C3.276 0.75 4.35 2.3616 4.35 4.35C4.35 6.3384 3.276 7.95 1.95 7.95M1.95 15.15C3.276 15.15 4.35 16.7616 4.35 18.75C4.35 20.7384 3.276 22.35 1.95 22.35" stroke="#999999" stroke-width="1.5" stroke-linecap="round" stroke-linejoin="round"/>
</svg>
