<svg width="16" height="16" viewBox="0 0 16 16" fill="none" xmlns="http://www.w3.org/2000/svg">
<path d="M1.98195 0C2.0101 0 2.03824 0 2.06725 0C2.07549 0.0324825 2.08374 0.0649649 2.09224 0.0984317C2.11522 0.188381 2.13855 0.278243 2.16221 0.368028C2.18633 0.462016 2.2076 0.556708 2.22718 0.651686C2.28022 0.785477 2.32508 0.839601 2.42443 0.941324C2.73094 1.26601 2.77301 1.62003 2.76129 2.0488C2.74765 2.21743 2.71834 2.36352 2.66433 2.52399C2.68698 2.54154 2.70963 2.55909 2.73297 2.57716C2.97575 2.77274 3.15702 2.95812 3.21876 3.26877C3.22216 3.34047 3.22336 3.41229 3.22293 3.48406C3.22272 3.54487 3.22272 3.54487 3.22251 3.6069C3.22198 3.66994 3.22198 3.66994 3.22143 3.73426C3.22124 3.77693 3.22105 3.8196 3.22085 3.86357C3.22035 3.96873 3.21964 4.0739 3.21876 4.17906C3.2896 4.1781 3.2896 4.1781 3.36187 4.17712C3.57373 4.17977 3.57373 4.17977 3.6879 4.26182C3.84286 4.5021 3.74366 4.79313 3.68724 5.05525C3.67 5.12617 3.65245 5.19702 3.63459 5.26779C3.6264 5.30366 3.61821 5.33953 3.60977 5.37649C3.55497 5.59467 3.50014 5.73903 3.30406 5.87552C3.23369 5.87552 3.16332 5.87552 3.09082 5.87552C3.09082 6.35342 3.09082 6.83132 3.09082 7.32371C3.316 7.32371 3.54119 7.32371 3.7732 7.32371C3.98644 7.48921 3.98644 7.48921 4.02445 7.60792C4.03282 7.8414 3.95893 8.05437 3.89581 8.27796C3.88317 8.32642 3.87053 8.37487 3.8575 8.4248C3.72886 8.8883 3.72886 8.8883 3.51731 9.02016C3.43286 9.02016 3.34842 9.02016 3.26141 9.02016C3.26141 9.935 3.26141 10.8498 3.26141 11.7924C3.64141 11.7924 4.02142 11.7924 4.41293 11.7924C4.41293 11.6968 4.41293 11.6012 4.41293 11.5028C4.46044 11.384 4.46044 11.384 4.52672 11.2689C4.5628 11.2053 4.5628 11.2053 4.5996 11.1405C4.63783 11.0753 4.63783 11.0753 4.67682 11.0088C4.70148 10.9656 4.72614 10.9223 4.75154 10.8777C4.82227 10.7543 4.89465 10.632 4.96737 10.5097C4.98659 10.4756 5.00581 10.4414 5.02561 10.4063C5.15373 10.188 5.15373 10.188 5.30056 10.1373C5.33135 10.1373 5.36213 10.1373 5.39385 10.1373C5.37835 10.1142 5.36285 10.091 5.34687 10.0672C4.86608 9.32324 4.61164 8.50518 4.78361 7.62854C4.82253 7.50751 4.86865 7.39677 4.92472 7.28233C4.94132 7.24537 4.95792 7.2084 4.97503 7.17032C5.14832 6.82263 5.41315 6.55873 5.6924 6.28928C5.72307 6.25952 5.75375 6.22976 5.78536 6.1991C6.22379 5.80022 6.75264 5.48933 7.25667 5.17539C8.33219 4.54275 8.33219 4.54275 8.93371 3.51703C8.95509 3.49335 8.97648 3.46967 8.99851 3.44527C9.13434 3.24362 9.09514 2.96191 9.06165 2.73087C8.98904 2.62809 8.91696 2.5938 8.80576 2.52399C8.69093 2.35363 8.66395 2.1979 8.7018 1.99902C8.74855 1.83987 8.80379 1.72573 8.93371 1.6137C9.07232 1.58008 9.07232 1.58008 9.1896 1.57232C9.16651 1.60384 9.16651 1.60384 9.14295 1.636C9.05039 1.76921 8.98198 1.87304 8.95237 2.03264C8.98317 2.18537 9.04808 2.27855 9.14695 2.39986C9.29478 2.47157 9.45485 2.46672 9.61609 2.44124C9.73876 2.34296 9.73876 2.34296 9.82933 2.23435C9.87156 2.23435 9.91378 2.23435 9.95728 2.23435C9.97283 2.36633 9.96241 2.43215 9.89597 2.54985C9.74834 2.6826 9.59482 2.7233 9.40284 2.77225C9.40542 2.87149 9.40913 2.97048 9.41351 3.06965C9.41411 3.09752 9.41472 3.12538 9.41534 3.1541C9.4256 3.35811 9.47959 3.44925 9.61609 3.59979C9.64724 3.69596 9.64724 3.69596 9.66673 3.79374C9.86494 4.46577 10.7484 4.88274 11.323 5.22441C11.8687 5.55041 12.3797 5.91638 12.8574 6.33066C12.8861 6.35456 12.9148 6.37845 12.9444 6.40307C13.3515 6.76383 13.7184 7.35997 13.759 7.90029C13.7942 8.6668 13.5943 9.25309 13.2412 9.93045C13.215 9.98141 13.215 9.98141 13.1883 10.0334C13.1776 10.054 13.1669 10.0747 13.1559 10.096C13.1876 10.1106 13.2194 10.1253 13.252 10.1404C13.397 10.239 13.4601 10.3527 13.5378 10.5023C13.5525 10.5296 13.5673 10.5568 13.5825 10.585C13.6292 10.6717 13.6751 10.7588 13.721 10.8459C13.7677 10.9333 13.8146 11.0205 13.8614 11.1078C13.8905 11.162 13.9194 11.2163 13.9482 11.2706C14.009 11.3948 14.009 11.3948 14.0942 11.5028C14.096 11.5993 14.096 11.6959 14.0942 11.7924C14.1435 11.7913 14.1928 11.7902 14.2435 11.7891C14.4267 11.7854 14.6099 11.783 14.7931 11.781C14.8724 11.78 14.9516 11.7786 15.0308 11.7768C15.1448 11.7743 15.2588 11.7731 15.3728 11.7722C15.4081 11.7711 15.4434 11.7701 15.4798 11.769C15.513 11.769 15.5463 11.7689 15.5806 11.7689C15.6097 11.7685 15.6388 11.768 15.6687 11.7675C15.8174 11.8092 15.8783 11.8807 15.9708 11.9993C16.0012 12.1215 15.9999 12.2399 15.9984 12.3651C15.9989 12.4198 15.9989 12.4198 15.9995 12.4755C16.0004 12.5957 15.9998 12.7157 15.9991 12.8359C15.9992 12.9195 15.9994 13.0031 15.9997 13.0868C16 13.2619 15.9996 13.4371 15.9986 13.6122C15.9974 13.8367 15.998 14.0611 15.9993 14.2855C16.0001 14.4582 15.9999 14.6308 15.9993 14.8035C15.9992 14.8862 15.9993 14.969 15.9998 15.0517C16.0004 15.1674 15.9995 15.283 15.9984 15.3987C15.9988 15.4329 15.9992 15.467 15.9997 15.5022C15.9991 15.5339 15.9985 15.5655 15.9978 15.5982C15.9978 15.6255 15.9977 15.6528 15.9976 15.6809C15.9524 15.8218 15.8904 15.9037 15.7575 15.9715C15.5634 16.003 15.3694 15.9994 15.1731 15.9977C15.1122 15.998 15.0513 15.9983 14.9904 15.9987C14.823 15.9996 14.6557 15.9992 14.4883 15.9985C14.3079 15.998 14.1274 15.9988 13.9469 15.9993C13.5933 16.0003 13.2398 16.0001 12.8862 15.9995C12.5989 15.999 12.3116 15.9989 12.0243 15.9992C11.963 15.9992 11.963 15.9992 11.9004 15.9993C11.8174 15.9993 11.7344 15.9994 11.6514 15.9995C10.8727 16 10.094 15.9994 9.3153 15.9983C8.64688 15.9973 7.97847 15.9975 7.31005 15.9984C6.53417 15.9995 5.75829 16 4.9824 15.9994C4.89969 15.9993 4.81698 15.9992 4.73428 15.9992C4.69358 15.9991 4.65288 15.9991 4.61096 15.9991C4.32394 15.9989 4.03692 15.9992 3.7499 15.9997C3.40019 16.0002 3.0505 16.0001 2.7008 15.999C2.52232 15.9984 2.34385 15.9982 2.16537 15.9989C2.00204 15.9995 1.83875 15.9992 1.67543 15.9981C1.61628 15.9979 1.55713 15.998 1.49799 15.9985C1.05037 16.002 1.05037 16.002 0.85948 15.8839C0.772387 15.739 0.761473 15.6512 0.762138 15.4837C0.761955 15.4559 0.761773 15.4282 0.761586 15.3997C0.761235 15.3071 0.762406 15.2146 0.763573 15.122C0.763633 15.0555 0.763599 14.989 0.763478 14.9226C0.763417 14.7423 0.764671 14.562 0.76616 14.3817C0.767493 14.1932 0.767618 14.0048 0.767871 13.8163C0.768534 13.4595 0.770284 13.1027 0.772424 12.7458C0.774807 12.3396 0.77598 11.9333 0.77705 11.5271C0.779279 10.6914 0.78303 9.85579 0.787781 9.02016C0.747977 9.02157 0.708172 9.02297 0.667162 9.02442C0.49314 9.01894 0.437822 8.97539 0.318644 8.85465C0.26703 8.7455 0.26703 8.7455 0.232514 8.62239C0.219731 8.57756 0.206949 8.53273 0.19378 8.48654C0.181327 8.4399 0.168875 8.39325 0.156045 8.3452C0.142769 8.29903 0.129492 8.25287 0.115812 8.20531C-0.0153452 7.73352 -0.0153452 7.73352 0.0201024 7.53059C0.0904729 7.46232 0.160843 7.39405 0.233346 7.32371C0.458532 7.32371 0.683718 7.32371 0.915728 7.32371C0.915728 6.8458 0.915728 6.3679 0.915728 5.87552C0.831283 5.86186 0.746838 5.84821 0.659835 5.83414C0.455302 5.6642 0.425128 5.42434 0.371955 5.17987C0.362554 5.14016 0.353153 5.10045 0.343467 5.05953C0.291596 4.83057 0.257327 4.62035 0.275995 4.38595C0.363959 4.26182 0.363959 4.26182 0.489239 4.17906C0.588696 4.17579 0.688338 4.17543 0.787781 4.17906C0.786297 4.12711 0.784813 4.07516 0.783283 4.02164C0.771638 3.45333 0.792076 3.03869 1.21427 2.60674C1.25649 2.57943 1.29871 2.55213 1.34222 2.52399C1.33556 2.49439 1.32891 2.46478 1.32206 2.43429C1.22798 1.96706 1.22072 1.50002 1.47016 1.0758C1.56044 0.955955 1.65373 0.843139 1.7687 0.744784C1.79685 0.744784 1.825 0.744784 1.854 0.744784C1.85224 0.697847 1.85048 0.65091 1.84867 0.602551C1.84831 0.409177 1.8821 0.226495 1.9393 0.0413769C1.95337 0.0277225 1.96745 0.0140681 1.98195 0ZM8.81376 12.8553C8.74033 12.994 8.71002 13.1273 8.72046 13.282C8.80372 13.4405 8.89468 13.5756 9.06165 13.6544C9.22432 13.6815 9.37462 13.6897 9.52429 13.6151C9.66285 13.5104 9.74998 13.4068 9.78668 13.2406C9.77865 13.0224 9.73561 12.897 9.57344 12.7441C9.29358 12.5979 9.04641 12.6451 8.81376 12.8553ZM7.5263 14.0681C7.41476 14.236 7.36844 14.3657 7.39835 14.5647C7.4951 14.742 7.58621 14.8652 7.78219 14.937C7.95719 14.9531 8.10188 14.9397 8.24766 14.8396C8.36971 14.717 8.438 14.61 8.44858 14.4379C8.41904 14.2574 8.37119 14.1663 8.25133 14.0268C8.02637 13.8813 7.73348 13.8908 7.5263 14.0681ZM10.1279 14.1509C10.0542 14.2938 10.0701 14.4495 10.0852 14.606C10.1452 14.7546 10.1948 14.8014 10.3331 14.8879C10.4812 14.9414 10.5687 14.9592 10.725 14.937C10.9077 14.8432 11.0348 14.7548 11.1088 14.5647C11.1253 14.3953 11.1109 14.2552 11.0098 14.1131C10.8766 13.9862 10.7602 13.9272 10.573 13.9156C10.365 13.929 10.2693 14.0069 10.1279 14.1509Z" fill="#C3B091"/>
</svg>
