<svg width="16" height="16" viewBox="0 0 16 16" fill="none" xmlns="http://www.w3.org/2000/svg">
<path d="M8.50618 0.118048C8.5427 0.130821 8.57921 0.143594 8.61683 0.156754C8.7165 0.191703 8.81601 0.227006 8.91547 0.262468C9.02118 0.300052 9.12707 0.33716 9.23294 0.374322C9.45343 0.451811 9.67371 0.529832 9.89394 0.608002C10.0949 0.679338 10.296 0.75042 10.497 0.821526C10.5738 0.848658 10.6505 0.87579 10.7272 0.902923C10.7649 0.916265 10.8027 0.929608 10.8415 0.943355C10.957 0.984196 11.0724 1.02509 11.1878 1.06599C11.759 1.2682 12.3321 1.46534 12.9059 1.66078C13.702 1.93204 14.4948 2.2115 15.2869 2.49301C15.334 2.50971 15.334 2.50971 15.3819 2.52675C15.4119 2.53749 15.4419 2.54822 15.4728 2.55928C15.5366 2.58161 15.6007 2.60314 15.665 2.62405C15.6974 2.63468 15.7297 2.64531 15.763 2.65627C15.7921 2.66558 15.8212 2.67488 15.8512 2.68447C15.9228 2.71627 15.9228 2.71627 15.988 2.81001C15.996 2.86938 15.996 2.86938 15.9958 2.93755C15.9959 2.97639 15.9959 2.97639 15.9961 3.01602C15.9958 3.04432 15.9956 3.07262 15.9954 3.10178C15.9954 3.13166 15.9954 3.16155 15.9954 3.19233C15.9954 3.29125 15.9948 3.39016 15.9943 3.48908C15.9942 3.5576 15.9941 3.62613 15.9941 3.69466C15.9938 3.87513 15.9932 4.05561 15.9924 4.23608C15.9918 4.4202 15.9915 4.60431 15.9912 4.78843C15.9905 5.14977 15.9893 5.51111 15.988 5.87246C15.0343 6.19471 14.0773 6.5064 13.1175 6.81143C12.8192 6.90622 12.5211 7.00116 12.2229 7.09619C12.1906 7.1065 12.1582 7.11681 12.1249 7.12744C11.481 7.33271 10.8389 7.54261 10.1971 7.7536C9.87151 7.8606 9.54589 7.96738 9.21979 8.07285C9.10925 8.10862 8.99878 8.14458 8.88844 8.18092C8.77736 8.2175 8.66612 8.25362 8.55476 8.28942C8.49371 8.30917 8.43283 8.32938 8.37195 8.34961C8.33517 8.36134 8.29838 8.37307 8.26049 8.38516C8.22855 8.39556 8.1966 8.40597 8.16369 8.4167C7.94592 8.45783 7.7425 8.37868 7.5382 8.31239C7.50884 8.30303 7.47948 8.29367 7.44923 8.28402C7.35206 8.253 7.255 8.2217 7.15793 8.1904C7.08911 8.16836 7.02029 8.14633 6.95146 8.12432C6.7694 8.06604 6.58742 8.00753 6.40546 7.94897C6.26107 7.90255 6.11663 7.8563 5.97218 7.81006C5.25414 7.58017 4.53678 7.34846 3.8206 7.11328C3.46039 6.99501 3.09982 6.87791 2.73845 6.76294C2.7175 6.75627 2.69654 6.74961 2.67496 6.74273C2.48907 6.6836 2.30314 6.62459 2.11718 6.56569C1.41379 6.34283 0.714484 6.10965 0.0162221 5.87246C0.0132034 5.47532 0.0108857 5.07819 0.00946687 4.68105C0.00878597 4.49665 0.00786199 4.31226 0.00638618 4.12786C0.00497127 3.94996 0.00419002 3.77207 0.00385161 3.59417C0.00361039 3.52624 0.00313985 3.45831 0.0024371 3.39038C0.00149291 3.29535 0.00135994 3.20036 0.00142048 3.10533C0.000717341 3.06305 0.000717341 3.06305 0 3.01991C0.00130684 2.83078 0.00130634 2.83078 0.0712219 2.73345C0.154241 2.68011 0.230148 2.64666 0.324454 2.61477C0.360494 2.60238 0.396535 2.58999 0.433667 2.57723C0.47293 2.56414 0.512193 2.55105 0.552646 2.53756C0.5943 2.52338 0.635942 2.50916 0.677573 2.49492C0.766761 2.46448 0.856025 2.43425 0.945356 2.4042C1.08739 2.35641 1.22923 2.30812 1.37105 2.25975C1.51667 2.21009 1.6623 2.16045 1.80798 2.11096C2.25334 1.95966 2.69745 1.80519 3.14131 1.64988C3.28798 1.59863 3.43466 1.54741 3.58134 1.4962C3.61764 1.48352 3.65394 1.47084 3.69134 1.45778C3.95808 1.36468 4.22499 1.27202 4.49198 1.17955C5.39606 0.866395 6.29916 0.550871 7.20088 0.231518C7.25763 0.211423 7.25763 0.211423 7.31553 0.190921C7.3863 0.16585 7.45708 0.140763 7.52784 0.115658C7.559 0.104614 7.59017 0.0935696 7.62228 0.0821908C7.66291 0.0677769 7.66291 0.0677769 7.70436 0.0530719C8.00496 -0.0517287 8.21678 0.0139337 8.50618 0.118048ZM7.77701 1.07912C7.74488 1.09027 7.71276 1.10141 7.67966 1.11289C7.64468 1.12526 7.60969 1.13763 7.57364 1.15038C7.5183 1.16967 7.5183 1.16967 7.46184 1.18936C7.36079 1.22463 7.25982 1.26007 7.15888 1.2956C7.05234 1.33304 6.94571 1.37025 6.83909 1.40748C6.66216 1.46928 6.48528 1.53121 6.30842 1.59322C6.06326 1.67918 5.81795 1.76476 5.57259 1.85019C5.53485 1.86334 5.49711 1.87648 5.45822 1.89002C5.38308 1.91619 5.30794 1.94235 5.23281 1.96852C5.04904 2.03253 4.8653 2.09663 4.68157 2.16073C4.29458 2.29575 3.90756 2.43069 3.52053 2.5656C3.37039 2.61793 3.22026 2.67027 3.07013 2.72261C3.02096 2.73975 2.9718 2.75689 2.92263 2.77403C2.87155 2.79184 2.87155 2.79184 2.81943 2.81001C2.93273 2.88243 3.04824 2.91843 3.1764 2.95872C3.20288 2.96717 3.22936 2.97562 3.25664 2.98433C3.34489 3.01245 3.43319 3.04038 3.5215 3.06831C3.58394 3.08818 3.64637 3.10806 3.70879 3.12795C3.87446 3.18072 4.04019 3.23332 4.20593 3.28588C4.49802 3.37854 4.79002 3.47145 5.08201 3.56439C5.11397 3.57457 5.14594 3.58474 5.17887 3.59522C5.64897 3.74489 6.11844 3.89626 6.58725 4.04961C6.61467 4.05857 6.6421 4.06753 6.67035 4.07675C7.40694 4.31751 7.40694 4.31751 7.72742 4.43904C7.88012 4.49114 7.97877 4.50442 8.13541 4.45979C8.16688 4.45091 8.19835 4.44202 8.23078 4.43287C8.38812 4.38574 8.54484 4.33721 8.70111 4.28691C8.75348 4.27018 8.75348 4.27018 8.80689 4.25311C8.9203 4.21683 9.03366 4.18041 9.14701 4.14397C9.22669 4.11844 9.30638 4.0929 9.38606 4.06737C9.86935 3.91238 10.352 3.7556 10.834 3.59697C11.6157 3.33978 12.4004 3.09097 13.1848 2.84126C13.1063 2.79111 13.0515 2.76296 12.9652 2.73332C12.9283 2.72051 12.9283 2.72051 12.8906 2.70744C12.8636 2.69823 12.8366 2.68901 12.8088 2.67952C12.7657 2.66466 12.7657 2.66466 12.7218 2.6495C12.6589 2.6278 12.596 2.60617 12.5331 2.58458C12.4312 2.54963 12.3294 2.51453 12.2276 2.47938C12.0805 2.42863 11.9334 2.37793 11.7863 2.32727C11.435 2.20623 11.084 2.0845 10.733 1.96271C10.6138 1.92135 10.4945 1.88003 10.3753 1.83872C9.98097 1.70197 9.58706 1.56424 9.19387 1.42454C9.13787 1.40468 9.13787 1.40468 9.08075 1.38442C8.9039 1.32168 8.72713 1.25874 8.5505 1.19543C8.48798 1.1732 8.42546 1.15098 8.36294 1.12877C8.33468 1.11855 8.30642 1.10833 8.27731 1.09781C8.2384 1.08405 8.2384 1.08405 8.1987 1.07002C8.17632 1.06201 8.15394 1.05399 8.13088 1.04574C7.99931 1.01069 7.90032 1.03591 7.77701 1.07912Z" fill="#C3B091"/>
<path d="M0.0162193 7.77867C0.165092 7.79751 0.298706 7.82287 0.43996 7.87242C0.465214 8.02497 0.477135 8.17284 0.482741 8.32749C0.528428 9.18111 0.771266 10.1536 1.41782 10.7786C1.65386 10.9701 1.91744 11.1123 2.23271 11.1224C2.59589 11.0759 2.88879 10.9135 3.11991 10.6407C3.48259 10.1359 3.64732 9.56234 3.76469 8.96615C3.7862 8.96615 3.80772 8.96615 3.82988 8.96615C3.83036 8.98386 3.83083 9.00158 3.83132 9.01983C3.86202 10.0533 4.02945 11.1807 4.84034 11.9348C5.06381 12.126 5.31845 12.2468 5.62263 12.2473C5.9745 12.2142 6.24781 12.0344 6.47011 11.7786C6.86012 11.2663 7.02404 10.6769 7.12202 10.0599C7.26963 10.0856 7.40653 10.1175 7.54563 10.1716C7.88451 10.3075 7.88451 10.3075 8.23777 10.254C8.28246 10.2352 8.28246 10.2352 8.32805 10.2161C8.38878 10.195 8.44953 10.1738 8.51048 10.1532C8.56977 10.1331 8.62871 10.1119 8.68762 10.0908C8.78438 10.0599 8.78438 10.0599 8.88217 10.0599C8.88509 10.077 8.88802 10.0941 8.89103 10.1117C9.01552 10.8234 9.20842 11.5338 9.79484 12.0286C10.0359 12.1832 10.2766 12.2773 10.5668 12.2344C10.9773 12.1438 11.2827 11.8843 11.5102 11.552C11.5476 11.4925 11.5842 11.4326 11.6202 11.3723C11.6369 11.3445 11.6537 11.3166 11.671 11.2879C12.012 10.68 12.1316 9.97617 12.16 9.29426C12.1615 9.2626 12.1629 9.23094 12.1643 9.19832C12.1677 9.12093 12.1711 9.04354 12.1743 8.96615C12.1958 8.96615 12.2173 8.96615 12.2395 8.96615C12.2471 8.99845 12.2471 8.99845 12.2549 9.03141C12.3846 9.60529 12.3846 9.60529 12.598 10.1536C12.6147 10.1877 12.6314 10.2219 12.6486 10.257C12.8455 10.6323 13.1063 10.9484 13.5321 11.0883C13.8423 11.1597 14.1127 11.0843 14.3826 10.931C15.0327 10.4997 15.301 9.68305 15.4428 8.97152C15.4809 8.76653 15.5049 8.56456 15.5153 8.35678C15.5236 8.1934 15.5376 8.03406 15.5642 7.87242C15.6103 7.85655 15.6565 7.84099 15.7028 7.82554C15.7285 7.81684 15.7542 7.80814 15.7807 7.79918C15.8576 7.77867 15.8576 7.77867 15.988 7.77867C15.9902 8.50583 15.992 9.23299 15.993 9.96015C15.9935 10.2978 15.9942 10.6354 15.9953 10.973C15.9963 11.2672 15.9969 11.5615 15.9972 11.8557C15.9973 12.0115 15.9976 12.1673 15.9983 12.3232C15.999 12.4698 15.9992 12.6164 15.999 12.763C15.9991 12.8169 15.9992 12.8707 15.9996 12.9246C16.0001 12.998 16 13.0715 15.9997 13.1449C15.9998 13.1861 15.9999 13.2272 16 13.2696C15.9872 13.3788 15.9713 13.4214 15.8902 13.4973C15.812 13.5308 15.739 13.5574 15.6579 13.582C15.6343 13.5896 15.6106 13.5971 15.5863 13.6049C15.5077 13.6299 15.4289 13.6543 15.3501 13.6787C15.2947 13.6962 15.2393 13.7137 15.1839 13.7313C15.0663 13.7685 14.9487 13.8055 14.831 13.8423C14.6468 13.8998 14.4629 13.9579 14.279 14.0161C14.0977 14.0734 13.9165 14.1307 13.7352 14.1878C13.3375 14.313 12.9407 14.4405 12.5451 14.5715C11.9713 14.761 11.3954 14.9445 10.8195 15.1281C10.1633 15.3373 9.50783 15.5483 8.85385 15.7638C8.80694 15.7792 8.76001 15.7946 8.71306 15.8099C8.61209 15.8429 8.5115 15.8765 8.41124 15.9114C8.37752 15.923 8.34381 15.9345 8.30908 15.9464C8.2668 15.9612 8.2668 15.9612 8.22366 15.9764C7.96902 16.0346 7.77016 15.9764 7.52959 15.8964C7.49673 15.8858 7.46387 15.8753 7.43002 15.8643C7.32247 15.8296 7.21512 15.7943 7.10776 15.759C7.03206 15.7344 6.95636 15.7099 6.88064 15.6853C6.6567 15.6127 6.43301 15.5394 6.20935 15.466C6.15079 15.4468 6.09224 15.4277 6.03368 15.4085C5.82516 15.3402 5.61664 15.2719 5.40822 15.2033C4.86619 15.0252 4.32238 14.8522 3.77867 14.6789C3.16913 14.4846 2.56005 14.2892 1.95277 14.0884C1.66959 13.995 1.38575 13.904 1.10091 13.8153C1.03683 13.7952 0.972757 13.7752 0.908686 13.7551C0.786341 13.7168 0.663833 13.679 0.541207 13.6415C0.486145 13.6243 0.431089 13.6071 0.376042 13.5898C0.350851 13.5823 0.32566 13.5748 0.299706 13.567C0.163829 13.5238 0.0858508 13.4934 0.0162193 13.3723C0.00418694 13.2696 0.00418694 13.2696 0.00446009 13.1449C0.00437654 13.122 0.00429299 13.099 0.0042069 13.0754C0.0040458 12.9985 0.00458379 12.9216 0.0051181 12.8446C0.00514569 12.7895 0.00513021 12.7344 0.00507483 12.6793C0.00504674 12.5295 0.00562222 12.3798 0.00630439 12.2301C0.00691512 12.0737 0.00697308 11.9172 0.00708917 11.7608C0.00739326 11.4645 0.00819595 11.1683 0.00917685 10.872C0.0102693 10.5347 0.0108074 10.1974 0.0112984 9.86016C0.0123209 9.16633 0.0140412 8.4725 0.0162193 7.77867Z" fill="#C3B091"/>
<path d="M11.9787 9.05989C11.8735 9.6406 11.5404 10.2746 11.0335 10.6224C10.743 10.7989 10.5001 10.8463 10.1534 10.8099C9.75754 10.6816 9.52815 10.449 9.30591 10.1224C9.2844 10.0914 9.26289 10.0605 9.24072 10.0286C9.23819 9.96578 9.23819 9.96578 9.27332 9.90363C9.3531 9.86719 9.42566 9.84058 9.50937 9.81535C9.54642 9.80351 9.54642 9.80351 9.58421 9.79143C9.6661 9.7654 9.74822 9.7401 9.83037 9.71479C9.88718 9.69687 9.94398 9.67891 10.0008 9.6609C10.1505 9.61356 10.3004 9.56683 10.4503 9.52023C10.603 9.4727 10.7554 9.42464 10.9079 9.3766C11.079 9.32266 11.2502 9.26878 11.4216 9.21535C11.4476 9.20722 11.4736 9.19909 11.5005 9.19071C11.5492 9.1755 11.5979 9.16033 11.6467 9.1452C11.9196 9.05989 11.9196 9.05989 11.9787 9.05989Z" fill="#C3B091"/>
<path d="M4.02545 9.05989C4.16786 9.08342 4.30284 9.12414 4.4398 9.16729C4.46457 9.17502 4.48934 9.18275 4.51486 9.19071C4.5964 9.2162 4.67789 9.24184 4.75936 9.26753C4.78722 9.27631 4.81508 9.28509 4.84378 9.29413C4.99096 9.34055 5.13809 9.38711 5.28518 9.43376C5.40707 9.47239 5.52904 9.51071 5.65112 9.54878C5.79856 9.59476 5.94582 9.64124 6.09297 9.68809C6.1491 9.70587 6.2053 9.72347 6.26156 9.7409C6.34 9.76524 6.4182 9.79021 6.49637 9.81535C6.51977 9.82245 6.54317 9.82955 6.56728 9.83686C6.72193 9.88765 6.72193 9.88765 6.76544 9.96538C6.76198 10.0763 6.68747 10.1556 6.62086 10.2415C6.59849 10.2708 6.59849 10.2708 6.57567 10.3006C6.45158 10.4579 6.32101 10.582 6.14415 10.6849C6.12188 10.6983 6.09962 10.7117 6.07667 10.7255C5.83859 10.8481 5.56231 10.8477 5.30304 10.7892C4.78543 10.6107 4.48688 10.1735 4.25672 9.7206C4.1509 9.50445 4.06779 9.29533 4.02545 9.05989Z" fill="#C3B091"/>
<path d="M0.668126 7.96616C1.09444 8.08523 1.51549 8.2212 1.93714 8.35449C2.0759 8.39835 2.21472 8.442 2.3537 8.48519C2.48886 8.52719 2.62384 8.56969 2.75871 8.61256C2.81002 8.62877 2.8614 8.6448 2.91284 8.66065C2.98439 8.68274 3.0557 8.70546 3.12699 8.72835C3.16762 8.74111 3.20826 8.75388 3.25013 8.76703C3.34095 8.8099 3.34095 8.8099 3.37348 8.87251C3.37367 9.06001 3.12899 9.2681 3.00073 9.39973C2.74756 9.63131 2.48892 9.69709 2.1474 9.69343C1.7906 9.66578 1.52447 9.45456 1.2854 9.21419C0.977985 8.86732 0.755909 8.41327 0.668126 7.96616Z" fill="#C3B091"/>
<path d="M15.3035 7.96616C15.3361 8.02866 15.3361 8.02866 15.3045 8.13669C15.2882 8.18219 15.2716 8.22755 15.2546 8.2728C15.2456 8.29665 15.2367 8.3205 15.2275 8.34507C15.0273 8.86335 14.6978 9.38958 14.1569 9.63203C13.9123 9.72089 13.6208 9.72236 13.3742 9.63996C13.0443 9.49443 12.8267 9.21682 12.6306 8.9349C12.6275 8.87227 12.6275 8.87227 12.6632 8.8099C12.7462 8.77239 12.8224 8.74458 12.9093 8.71826C12.9479 8.70588 12.9479 8.70588 12.9873 8.69326C13.0727 8.66606 13.1583 8.63959 13.244 8.61312C13.3031 8.59443 13.3623 8.57569 13.4214 8.55691C13.5772 8.50755 13.7333 8.45881 13.8894 8.41019C14.0486 8.36049 14.2075 8.31021 14.3665 8.25998C14.6786 8.16147 14.991 8.06361 15.3035 7.96616Z" fill="#C3B091"/>
</svg>
