<svg width="24" height="21" viewBox="0 0 24 21" fill="none" xmlns="http://www.w3.org/2000/svg">
<path d="M8.34412 0.0729414C8.25497 0.119864 8.13297 0.227788 8.07666 0.316941C7.97343 0.467095 7.96873 0.51871 7.96873 1.40086C7.96873 2.28302 7.97343 2.33463 8.07666 2.48479C8.37697 2.93525 9.01981 2.90709 9.2732 2.42848C9.37643 2.2314 9.38112 2.18917 9.36704 1.34456C9.35296 0.546864 9.34358 0.45771 9.25443 0.340403C9.01981 0.0213259 8.64912 -0.0865971 8.34412 0.0729414Z" fill="white" fill-opacity="0.5"/>
<path d="M7.78104 4.33356C6.5845 4.53063 5.57566 5.05148 4.70289 5.92425C3.5955 7.02694 3.04181 8.35486 3.04181 9.89863C3.04181 11.3579 3.58612 12.714 4.59497 13.7651C4.80612 13.9856 5.1252 14.2719 5.29881 14.4032L5.6132 14.6379L5.41143 15.0696C5.11112 15.7077 5.04074 16.0456 5.04074 16.7682C5.04074 17.2515 5.0642 17.4532 5.14397 17.7442C5.4865 18.9454 6.23727 19.8463 7.3165 20.3531C8.12827 20.7332 7.66373 20.7097 14.0687 20.7097C19.2068 20.7097 19.8027 20.7003 20.0983 20.6299C21.994 20.1889 23.3923 18.8234 23.8803 16.9512C24.0399 16.3459 24.0399 15.2666 23.8803 14.6566C23.6363 13.7229 23.2234 12.9909 22.5618 12.3339C21.6233 11.3908 20.4033 10.8793 19.1083 10.8793H18.7141L18.5311 10.5133C17.8648 9.19479 16.6777 8.2094 15.284 7.81056C14.8664 7.69325 14.2893 7.59471 13.9843 7.59471C13.8153 7.59471 13.8013 7.58063 13.6277 7.25217C12.8487 5.80225 11.488 4.76056 9.89258 4.39925C9.35766 4.27725 8.31596 4.2444 7.78104 4.33356ZM9.39989 5.74125C10.4697 5.92894 11.4692 6.56709 12.1027 7.47271L12.3326 7.79648L11.9478 7.94194C11.2487 8.20471 10.695 8.55663 10.16 9.08217C9.24973 9.96902 8.7242 11.0436 8.56935 12.3292L8.50835 12.8219L8.20335 12.8782C7.79512 12.9533 7.20389 13.1832 6.90358 13.3897C6.7675 13.4789 6.63612 13.5539 6.60797 13.5539C6.49066 13.5539 5.83373 13.0519 5.57097 12.7609C4.03189 11.0858 4.07412 8.53786 5.6695 6.93309C6.06366 6.53894 6.30766 6.36063 6.77689 6.12133C7.59804 5.71309 8.48958 5.58171 9.39989 5.74125ZM14.3972 9.04932C15.8424 9.27925 17.0483 10.3069 17.4941 11.6911C17.6208 12.0806 17.724 12.2119 17.9868 12.3105C18.1604 12.3809 18.2355 12.3856 18.4936 12.3386C20.7037 11.9539 22.7307 13.7604 22.5947 15.9939C22.5383 16.8902 22.2052 17.6175 21.553 18.2697C21.0978 18.7296 20.6943 18.9782 20.0514 19.1941L19.723 19.302L14.2799 19.3161C10.3524 19.3255 8.74766 19.3161 8.51773 19.2739C7.52766 19.1096 6.7065 18.2885 6.48127 17.2468C6.25604 16.1676 6.79097 15.0414 7.77635 14.5206C8.19866 14.3 8.55997 14.2109 9.03858 14.2109C9.49373 14.2109 9.7002 14.1358 9.85973 13.9106C9.95358 13.7745 9.96297 13.7135 9.96766 12.9909C9.97235 12.165 10.0287 11.8694 10.2867 11.2829C10.9765 9.72502 12.708 8.78656 14.3972 9.04932Z" fill="white" fill-opacity="0.5"/>
<path d="M0.376582 4.66671C0.0246592 4.84502 -0.106725 5.30017 0.0950438 5.64271C0.184198 5.79756 0.329659 5.90079 0.977197 6.26679C1.7045 6.6844 1.7655 6.70786 1.97197 6.68909C2.38958 6.65156 2.66174 6.31371 2.60543 5.90079C2.56789 5.60517 2.43181 5.48317 1.67166 5.04209C0.878659 4.58225 0.662813 4.52125 0.376582 4.66671Z" fill="white" fill-opacity="0.5"/>
<path d="M16.3773 4.63856C16.1615 4.72771 15.026 5.4034 14.8993 5.52071C14.6177 5.78348 14.6365 6.24802 14.9368 6.51079C15.2793 6.81109 15.467 6.77825 16.382 6.24802C17.1844 5.77879 17.3064 5.65679 17.3064 5.29548C17.3064 4.80748 16.8184 4.46494 16.3773 4.63856Z" fill="white" fill-opacity="0.5"/>
<path d="M1.61066 13.1551C0.92089 13.5258 0.198275 13.9762 0.123198 14.0842C-0.195879 14.5252 0.151351 15.1962 0.690967 15.1962C0.939659 15.1962 2.36143 14.3986 2.5022 14.178C2.69927 13.8824 2.61481 13.4179 2.32858 13.2114C2.15966 13.0847 1.79366 13.0566 1.61066 13.1551Z" fill="white" fill-opacity="0.5"/>
</svg>
