<svg width="24" height="24" viewBox="0 0 24 24" fill="none" xmlns="http://www.w3.org/2000/svg">
<path d="M11.6203 0.107861C11.4844 0.182894 11.3766 0.286065 11.2969 0.426753C11.1844 0.628406 11.1797 0.661233 11.1656 1.73046C11.1422 3.02948 11.1703 3.36244 11.3109 3.56878C11.6672 4.08932 12.3375 4.08932 12.6938 3.56409C12.7969 3.41402 12.7969 3.38589 12.7969 2.00246V0.595578L12.6797 0.393926C12.5484 0.168825 12.2531 0 11.9906 0C11.9016 0 11.7328 0.0468959 11.6203 0.107861Z" fill="white" fill-opacity="0.5"/>
<path d="M3.77344 3.34837C3.36563 3.53126 3.16875 4.03774 3.35156 4.42698C3.39375 4.51139 3.84844 5.0038 4.37344 5.51965C5.14687 6.28874 5.35781 6.47164 5.51719 6.51853C6.12188 6.70143 6.69844 6.12461 6.51563 5.51965C6.46875 5.3602 6.28594 5.14917 5.51719 4.37539C5.00156 3.85016 4.50938 3.39527 4.425 3.35306C4.24219 3.26865 3.96094 3.26396 3.77344 3.34837Z" fill="white" fill-opacity="0.5"/>
<path d="M19.5656 3.35775C19.4859 3.39527 18.9984 3.85485 18.4828 4.37539C17.7141 5.14917 17.5312 5.3602 17.4844 5.51965C17.3016 6.12461 17.8781 6.70143 18.4828 6.51853C18.6422 6.47164 18.8531 6.28874 19.6266 5.51965C20.1516 5.0038 20.6062 4.51139 20.6484 4.42698C20.9578 3.77043 20.2172 3.03417 19.5656 3.35775Z" fill="white" fill-opacity="0.5"/>
<path d="M11.1094 5.69785C9.74063 5.89013 8.48438 6.51853 7.49531 7.51272C5.72344 9.28539 5.16563 11.9256 6.06094 14.3033C6.66563 15.9212 8.08594 17.3421 9.70312 17.9471C12.0891 18.8475 14.7094 18.2894 16.4953 16.5027C18.9891 14.0078 18.9891 10.0029 16.4953 7.50804C15.0703 6.0824 13.1016 5.42117 11.1094 5.69785ZM12.7781 7.33921C15.3656 7.7941 17.1047 10.2327 16.6641 12.7838C16.4906 13.7686 16.0969 14.5471 15.3984 15.2787C13.8656 16.8966 11.4047 17.2014 9.48281 16.0103C9.00469 15.7195 8.2875 15.002 7.99688 14.5237C6.68906 12.4087 7.20469 9.67463 9.1875 8.20678C10.2328 7.43769 11.5266 7.12349 12.7781 7.33921Z" fill="white" fill-opacity="0.5"/>
<path d="M0.389063 11.3254C0.16875 11.4567 0 11.7521 0 12.0054C0 12.2586 0.16875 12.554 0.39375 12.6853L0.595313 12.8026H2.00156C3.38438 12.8026 3.4125 12.8026 3.5625 12.6947C4.0875 12.3383 4.0875 11.6724 3.5625 11.3113C3.4125 11.2081 3.38438 11.2081 1.99688 11.2081H0.585938L0.389063 11.3254Z" fill="white" fill-opacity="0.5"/>
<path d="M20.4375 11.3113C20.1281 11.5223 19.9875 11.8459 20.0625 12.1789C20.1141 12.3899 20.2313 12.5587 20.4375 12.6947C20.5875 12.8026 20.6156 12.8026 22.0031 12.8026C23.3766 12.8026 23.4188 12.7979 23.5969 12.6947C23.8125 12.5728 24 12.2586 24 12.0147C24 11.7521 23.8313 11.4567 23.6063 11.3254L23.4047 11.2081H21.9984C20.6156 11.2081 20.5875 11.2081 20.4375 11.3113Z" fill="white" fill-opacity="0.5"/>
<path d="M5.41406 17.5344C5.18437 17.6422 3.40312 19.4243 3.32812 19.6166C3.07969 20.2825 3.79219 20.9578 4.425 20.6577C4.50937 20.6154 5.00156 20.1606 5.51719 19.6353C6.28594 18.8615 6.46875 18.6505 6.51562 18.4911C6.62812 18.1159 6.45469 17.7313 6.09375 17.5485C5.84062 17.4218 5.6625 17.4171 5.41406 17.5344Z" fill="white" fill-opacity="0.5"/>
<path d="M17.9063 17.5485C17.5453 17.7313 17.3719 18.1159 17.4844 18.4911C17.5313 18.6505 17.7141 18.8615 18.4828 19.6353C18.9984 20.1606 19.4906 20.6154 19.575 20.6577C20.2078 20.9578 20.9203 20.2825 20.6672 19.6166C20.5969 19.4243 18.8109 17.6422 18.5859 17.5344C18.3375 17.4171 18.1594 17.4218 17.9063 17.5485Z" fill="white" fill-opacity="0.5"/>
<path d="M11.8172 20.0715C11.4609 20.1559 11.2266 20.4513 11.1797 20.8828C11.1609 21.0469 11.1562 21.6753 11.1656 22.2803C11.1797 23.3026 11.1891 23.3917 11.2828 23.5699C11.5734 24.1233 12.3703 24.1467 12.6797 23.6168L12.7969 23.4151V22.0223C12.7969 21.0797 12.7781 20.5967 12.7453 20.5263C12.5625 20.1746 12.1875 19.9917 11.8172 20.0715Z" fill="white" fill-opacity="0.5"/>
</svg>
