<svg width="24" height="19" viewBox="0 0 24 19" fill="none" xmlns="http://www.w3.org/2000/svg">
<path d="M11.6625 0.0878835C11.5547 0.144133 11.4469 0.251946 11.3906 0.364446C11.3016 0.537884 11.2969 0.636321 11.2969 2.2957C11.2969 4.2457 11.3016 4.26445 11.6203 4.47538C11.9531 4.70038 12.4406 4.56913 12.6188 4.2082C12.6938 4.06288 12.7031 3.86601 12.7031 2.2957C12.7031 0.636321 12.6984 0.537884 12.6094 0.364446C12.4359 0.0222585 12.0141 -0.0996165 11.6625 0.0878835Z" fill="white" fill-opacity="0.5"/>
<path d="M3.44531 3.10194C3.25312 3.18632 3.05625 3.42538 3.01875 3.62226C2.95781 3.95038 3.05625 4.08632 4.02187 5.06601C5.15156 6.20038 5.30156 6.28944 5.75156 6.08788C6.08438 5.93319 6.22969 5.51601 6.07031 5.17382C5.97656 4.97694 4.13906 3.14882 3.97031 3.08788C3.79688 3.02226 3.61875 3.02694 3.44531 3.10194Z" fill="white" fill-opacity="0.5"/>
<path d="M19.9922 3.11132C19.7953 3.20976 18.0141 4.99569 17.9297 5.17382C17.7703 5.51601 17.9156 5.93319 18.2484 6.08788C18.6984 6.28944 18.8484 6.20038 19.9781 5.06601C20.6578 4.37694 20.9063 4.09101 20.9531 3.95976C21.1359 3.39257 20.5125 2.83944 19.9922 3.11132Z" fill="white" fill-opacity="0.5"/>
<path d="M10.9125 6.01288C8.73281 6.42538 6.94219 7.99101 6.23906 10.0957C6.0375 10.7004 5.95313 11.2488 5.95313 11.9848C5.95313 12.716 6.0375 13.2785 6.23906 13.8785C6.31406 14.1082 6.375 14.3004 6.375 14.3144C6.375 14.3238 5.65313 14.3332 4.77188 14.3332C3.19688 14.3332 3.15938 14.3379 2.98125 14.441C2.50313 14.7129 2.52188 15.4301 3.01875 15.6644C3.16406 15.7348 3.95625 15.7394 12 15.7394C20.0438 15.7394 20.8359 15.7348 20.9813 15.6644C21.4781 15.4301 21.4969 14.7129 21.0188 14.441C20.8406 14.3379 20.8031 14.3332 19.2328 14.3332C18.3469 14.3332 17.625 14.3238 17.625 14.3144C17.625 14.3051 17.6859 14.1035 17.7656 13.8691C17.9672 13.2551 18.0469 12.7113 18.0469 11.9894C18.0469 10.9348 17.8547 10.1285 17.3813 9.20976C16.5844 7.6582 15.1875 6.55194 13.4531 6.09726C13.0688 5.99413 12.8859 5.97538 12.1406 5.96132C11.5219 5.95194 11.1703 5.96601 10.9125 6.01288ZM13.2844 7.50819C14.8359 7.97694 16.0031 9.13944 16.4859 10.7098C16.6031 11.0941 16.6125 11.1785 16.6125 11.9894C16.6125 12.8004 16.6031 12.8848 16.4859 13.2691C16.4156 13.4941 16.2844 13.8269 16.1953 14.0051L16.0313 14.3332H7.96875L7.80469 14.0051C7.71563 13.8269 7.58438 13.4941 7.51406 13.2691C7.39688 12.8848 7.3875 12.8004 7.3875 11.9894C7.3875 11.1785 7.39688 11.0941 7.51406 10.7098C7.90781 9.43007 8.72813 8.44101 9.88125 7.85038C10.6781 7.44257 11.1234 7.34413 12.1172 7.36757C12.7688 7.38163 12.9234 7.40038 13.2844 7.50819Z" fill="white" fill-opacity="0.5"/>
<path d="M0.365625 11.3848C0.164063 11.4879 0 11.7644 0 11.9894C0 12.2238 0.164062 12.491 0.375 12.5988C0.548438 12.6879 0.646875 12.6926 2.30625 12.6926C3.87656 12.6926 4.07344 12.6832 4.21875 12.6082C4.72031 12.3598 4.72031 11.6191 4.21875 11.3707C4.06875 11.2957 3.88125 11.2863 2.29688 11.2863C0.6375 11.291 0.529688 11.2957 0.365625 11.3848Z" fill="white" fill-opacity="0.5"/>
<path d="M19.7812 11.3707C19.5469 11.4879 19.4062 11.7223 19.4062 11.9894C19.4062 12.2566 19.5469 12.491 19.7812 12.6082C19.9266 12.6832 20.1234 12.6926 21.6937 12.6926C23.3531 12.6926 23.4516 12.6879 23.625 12.5988C23.8359 12.491 24 12.2238 24 11.9894C24 11.7551 23.8359 11.4879 23.625 11.3801C23.4516 11.291 23.3531 11.2863 21.6937 11.2863C20.1234 11.2863 19.9266 11.2957 19.7812 11.3707Z" fill="white" fill-opacity="0.5"/>
<path d="M7.22813 17.1926C6.77813 17.4644 6.78281 18.0504 7.23281 18.3832C7.36406 18.4816 7.37344 18.4816 12 18.4816C16.6266 18.4816 16.6359 18.4816 16.7672 18.3832C17.2172 18.0504 17.2219 17.4644 16.7719 17.1926C16.6219 17.0988 16.5234 17.0988 12 17.0988C7.47656 17.0988 7.37813 17.0988 7.22813 17.1926Z" fill="white" fill-opacity="0.5"/>
</svg>
