<svg width="17" height="18" viewBox="0 0 17 18" fill="none" xmlns="http://www.w3.org/2000/svg">
<path fill-rule="evenodd" clip-rule="evenodd" d="M6.55801 2.36759C4.82947 1.37018 3.62343 1.47547 2.95062 1.86422C2.27757 2.2531 1.58398 3.24581 1.58398 5.24069V12.7593C1.58398 14.7542 2.27757 15.7469 2.95062 16.1358C3.62343 16.5245 4.82947 16.6298 6.55801 15.6324L13.084 11.8731C14.8117 10.876 15.325 9.77812 15.325 9C15.325 8.22188 14.8121 7.12421 13.0844 6.12713L6.55801 2.36759ZM13.8756 4.75494L7.34966 0.99563C3.30523 -1.3381 0 0.573235 0 5.24069V12.7593C0 17.4268 3.30523 19.3381 7.34966 17.0044L13.8756 13.2451C17.9201 10.9113 17.9201 7.08867 13.8756 4.75494Z" fill="#333333"/>
</svg>
