<svg width="14" height="16" viewBox="0 0 14 16" fill="none" xmlns="http://www.w3.org/2000/svg">
<path d="M14 8C14.0005 8.20893 13.9451 8.41444 13.8392 8.59654C13.7332 8.77864 13.5804 8.93113 13.3954 9.03918L1.93454 15.8189C1.74132 15.9333 1.52001 15.9957 1.29347 15.9998C1.06693 16.0038 0.843384 15.9493 0.645909 15.8419C0.450315 15.7362 0.287379 15.582 0.173858 15.3951C0.0603364 15.2083 0.000326819 14.9956 0 14.7789V1.22109C0.000326819 1.0044 0.0603364 0.791702 0.173858 0.604871C0.287379 0.41804 0.450315 0.263819 0.645909 0.158069C0.843384 0.0506496 1.06693 -0.00384561 1.29347 0.000211026C1.52001 0.00426766 1.74132 0.0667292 1.93454 0.181145L13.3954 6.96082C13.5804 7.06887 13.7332 7.22136 13.8392 7.40346C13.9451 7.58556 14.0005 7.79107 14 8Z" fill="#1F956A"/>
</svg>
