<svg width="16" height="17" viewBox="0 0 16 17" fill="none" xmlns="http://www.w3.org/2000/svg">
<path fill-rule="evenodd" clip-rule="evenodd" d="M15.3191 0C15.6952 0 16 0.304845 16 0.68089V15.6605C16 16.0365 15.6952 16.3414 15.3191 16.3414C14.9431 16.3414 14.6382 16.0365 14.6382 15.6605V0.68089C14.6382 0.304845 14.9431 0 15.3191 0ZM1.05331 0.443057C1.36973 0.2737 1.72597 0.192854 2.0845 0.209043C2.44302 0.225231 2.79053 0.337855 3.0904 0.53504L3.09398 0.537394L11.3672 6.05261C11.6297 6.22786 11.8473 6.46317 12.0012 6.73868C12.1552 7.0142 12.2416 7.32232 12.2533 7.63772C12.265 7.95312 12.2017 8.2668 12.0686 8.55297C11.9355 8.83914 11.7363 9.08963 11.4876 9.28386L3.21331 15.7195L3.21031 15.7218C2.91544 15.9485 2.56304 16.0883 2.19292 16.1253C1.82281 16.1623 1.44972 16.095 1.1158 15.9312C0.781889 15.7673 0.500451 15.5133 0.30328 15.1979C0.106108 14.8825 0.00106076 14.5182 2.75972e-06 14.1463L0 14.1443V2.18913C0.00223814 1.83024 0.10128 1.47862 0.286658 1.17131C0.472035 0.864008 0.736894 0.612415 1.05331 0.443057ZM2.02307 1.56944C1.90933 1.5643 1.79631 1.58995 1.69593 1.64368C1.59554 1.69741 1.51152 1.77722 1.4527 1.87472C1.39419 1.97171 1.3628 2.08263 1.36178 2.19588V14.1432C1.36226 14.2609 1.39558 14.3762 1.45799 14.476C1.52054 14.5761 1.60983 14.6567 1.71577 14.7087C1.8217 14.7607 1.94006 14.782 2.05748 14.7702C2.1744 14.7586 2.28575 14.7145 2.37906 14.6432C2.37945 14.6429 2.37985 14.6426 2.38025 14.6422L10.6495 8.21047C10.6494 8.21055 10.6496 8.21038 10.6495 8.21047C10.7283 8.14889 10.7917 8.06925 10.8339 7.97859C10.8761 7.8878 10.8962 7.78829 10.8925 7.68823C10.8888 7.58817 10.8614 7.49041 10.8125 7.40301C10.7637 7.3156 10.6948 7.24103 10.6115 7.18544L2.34073 1.6719C2.24593 1.60994 2.13623 1.57455 2.02307 1.56944Z" fill="#1F956A"/>
</svg>
