<svg width="16" height="17" viewBox="0 0 16 17" fill="none" xmlns="http://www.w3.org/2000/svg">
<path fill-rule="evenodd" clip-rule="evenodd" d="M0.68089 0C0.304845 0 0 0.304845 0 0.68089V15.6605C0 16.0365 0.304845 16.3414 0.68089 16.3414C1.05693 16.3414 1.36178 16.0365 1.36178 15.6605V0.68089C1.36178 0.304845 1.05693 0 0.68089 0ZM14.9467 0.443057C14.6303 0.2737 14.274 0.192854 13.9155 0.209043C13.557 0.225231 13.2095 0.337855 12.9096 0.53504L12.906 0.537394L4.63277 6.05261C4.37027 6.22786 4.15272 6.46317 3.99875 6.73868C3.84478 7.0142 3.75839 7.32232 3.74669 7.63772C3.73498 7.95312 3.79829 8.2668 3.93141 8.55297C4.06453 8.83914 4.26367 9.08963 4.51245 9.28386L12.7867 15.7195L12.7897 15.7218C13.0846 15.9485 13.437 16.0883 13.8071 16.1253C14.1772 16.1623 14.5503 16.095 14.8842 15.9312C15.2181 15.7673 15.4995 15.5133 15.6967 15.1979C15.8939 14.8825 15.9989 14.5182 16 14.1463L16 14.1443V2.18913C15.9978 1.83024 15.8987 1.47862 15.7133 1.17131C15.528 0.864008 15.2631 0.612415 14.9467 0.443057ZM13.9769 1.56944C14.0907 1.5643 14.2037 1.58995 14.3041 1.64368C14.4045 1.69741 14.4885 1.77722 14.5473 1.87472C14.6058 1.97171 14.6372 2.08263 14.6382 2.19588V14.1432C14.6377 14.2609 14.6044 14.3762 14.542 14.476C14.4795 14.5761 14.3902 14.6567 14.2842 14.7087C14.1783 14.7607 14.0599 14.782 13.9425 14.7702C13.8256 14.7586 13.7142 14.7145 13.6209 14.6432C13.6205 14.6429 13.6201 14.6426 13.6198 14.6422L5.35047 8.21047C5.35058 8.21055 5.35036 8.21038 5.35047 8.21047C5.2717 8.14889 5.20831 8.06925 5.16613 7.97859C5.1239 7.8878 5.10381 7.78829 5.10753 7.68823C5.11124 7.58817 5.13865 7.49041 5.1875 7.40301C5.23634 7.3156 5.30523 7.24103 5.38851 7.18544L13.6593 1.6719C13.7541 1.60994 13.8638 1.57455 13.9769 1.56944Z" fill="#1F956A"/>
</svg>
