<svg width="13" height="13" viewBox="0 0 13 13" fill="none" xmlns="http://www.w3.org/2000/svg">
<path d="M0.5 12.5L3.53743 9.46257M3.53743 9.46257C3.04991 8.97505 2.66319 8.39627 2.39934 7.7593C2.1355 7.12232 1.9997 6.43961 1.9997 5.75015C1.9997 5.06069 2.1355 4.37798 2.39934 3.74101C2.66319 3.10403 3.04991 2.52526 3.53743 2.03773C4.02495 1.55021 4.60373 1.16349 5.2407 0.899644C5.87768 0.635799 6.56039 0.5 7.24985 0.5C7.93931 0.5 8.62202 0.635799 9.25899 0.899644C9.89597 1.16349 10.4747 1.55021 10.9623 2.03773C11.9469 3.02233 12.5 4.35772 12.5 5.75015C12.5 7.14258 11.9469 8.47797 10.9623 9.46257C9.97767 10.4472 8.64228 11.0003 7.24985 11.0003C5.85742 11.0003 4.52203 10.4472 3.53743 9.46257Z" stroke="#999999" stroke-linecap="round" stroke-linejoin="round"/>
</svg>
